<svg width="50" height="24" viewBox="0 0 50 24" fill="none" xmlns="http://www.w3.org/2000/svg">
<g id="aqi-logo.svg">
<path id="Vector" d="M42.7217 23.39V0.62207H45.0627V23.39H42.7217Z" fill="url(#paint0_linear_0_2988)"/>
<path id="Vector_2" d="M9.9201 0.613281H11.8934L21.7596 23.3899H19.302L16.2256 16.2635H5.54306L2.50245 23.3899H0L9.9201 0.613281ZM15.7143 14.4993L10.8888 3.24203L6.04534 14.4993H15.7143Z" fill="url(#paint1_linear_0_2988)"/>
<path id="Vector_3" d="M38.3828 19.9315C39.5126 18.9222 40.4029 17.6851 40.9915 16.3065C41.5802 14.9279 41.853 13.441 41.7912 11.9492C41.7944 9.97028 41.249 8.02719 40.2126 6.32491C39.187 4.60039 37.7189 3.16489 35.9521 2.15909C34.228 1.14618 32.2523 0.61163 30.2386 0.613285H30.0054V3.1023H30.122C31.2778 3.09786 32.4243 3.30219 33.5035 3.7049C34.5644 4.08003 35.5365 4.66026 36.3611 5.41069C37.1858 6.16113 37.846 7.06624 38.3021 8.07158C38.8109 9.127 39.0801 10.2768 39.0914 11.4427C39.1681 13.8982 38.2758 16.289 36.5979 18.1237L33.1716 14.7089H29.7364L34.7233 19.5472C33.3721 20.3567 31.8246 20.8027 30.2386 20.8398C28.2054 20.8508 26.2472 20.0931 24.7763 18.7263L23.2246 20.8747C24.0444 21.5217 24.9494 22.0592 25.9154 22.4729C27.3628 23.09 28.9277 23.4025 30.5077 23.3899C32.7068 23.3349 34.8344 22.6179 36.5979 21.3376L38.5084 23.2502H41.7912L38.3828 19.9315Z" fill="url(#paint2_linear_0_2988)"/>
<path id="Vector_4" d="M19.6709 8.19408L22.2182 9.01502C22.4269 8.38293 22.7035 7.77405 23.0434 7.19847C23.2933 6.78799 23.5752 6.39676 23.8865 6.0282L21.994 4.3252C20.9633 5.45172 20.1736 6.76697 19.6709 8.19408Z" fill="#EA4D9A"/>
<path id="Vector_5" d="M25.5791 1.60021L26.6106 3.96695L26.9066 3.83595C27.8719 3.37771 28.9274 3.12749 30.001 3.10235V0.62207C28.4707 0.624122 26.9601 0.95827 25.5791 1.60021Z" fill="#BD202E"/>
<path id="Vector_6" d="M25.5815 1.60883C24.3256 2.20713 23.199 3.03425 22.2629 4.04544C22.1732 4.13278 22.0924 4.22884 22.0117 4.32491L23.9222 6.07158C24.6619 5.20503 25.5781 4.49728 26.613 3.99304L25.5815 1.6001V1.60883Z" fill="#9858A2"/>
<path id="Vector_7" d="M23.2229 20.8747L24.7746 18.7263C24.6012 18.5691 24.4308 18.4031 24.2634 18.2284C23.5653 17.5278 22.9869 16.7229 22.5502 15.8442L20.2451 17.1804C20.947 18.6099 21.9637 19.8712 23.2229 20.8747Z" fill="#A6C639"/>
<path id="Vector_8" d="M19.8574 16.3336C19.974 16.6218 20.1085 16.9012 20.2431 17.2069L22.5482 15.8707C22.0246 14.7971 21.7433 13.6268 21.723 12.4385L19.0322 12.7267C19.0948 13.9659 19.3738 15.1857 19.8574 16.3336Z" fill="#F7EC33"/>
<path id="Vector_9" d="M19.0249 12.2027C19.0249 12.3686 19.0249 12.5346 19.0249 12.7005L21.7157 12.4123C21.7157 12.3424 21.7157 12.2726 21.7157 12.2027C21.709 11.121 21.8786 10.0451 22.2179 9.01503L19.6706 8.19409C19.2314 9.48686 19.0133 10.8411 19.0249 12.2027Z" fill="#EA7451"/>
<g id="Page-1">
<g id="024---Registered-Trademark">
<path id="Oval" d="M47.4665 4.57828C48.586 4.57828 49.4936 3.71807 49.4936 2.65694C49.4936 1.59581 48.586 0.735596 47.4665 0.735596C46.347 0.735596 45.4395 1.59581 45.4395 2.65694C45.4395 3.71807 46.347 4.57828 47.4665 4.57828Z" fill="#209EC9"/>
<path id="Oval_2" d="M47.468 4.17642C48.3597 4.17642 49.0825 3.49607 49.0825 2.65681C49.0825 1.81756 48.3597 1.13721 47.468 1.13721C46.5763 1.13721 45.8535 1.81756 45.8535 2.65681C45.8535 3.49607 46.5763 4.17642 47.468 4.17642Z" fill="white"/>
<path id="Shape" d="M48.3891 3.48687L48.0034 2.83186C48.0708 2.79828 48.134 2.75725 48.1918 2.7096C48.2585 2.645 48.31 2.56697 48.3425 2.48098C48.375 2.395 48.3879 2.30312 48.3801 2.2118C48.3621 2.04972 48.2818 1.90025 48.1554 1.79336C48.029 1.68647 47.8658 1.63004 47.6984 1.63539H46.8374C46.8284 1.63413 46.8193 1.63478 46.8106 1.63728C46.8019 1.63978 46.7939 1.64408 46.7871 1.64989C46.7803 1.6557 46.7748 1.66287 46.7711 1.67092C46.7674 1.67897 46.7655 1.68771 46.7656 1.69653V3.5218C46.7655 3.53062 46.7674 3.53935 46.7711 3.5474C46.7748 3.55545 46.7803 3.56263 46.7871 3.56844C46.7939 3.57424 46.8019 3.57855 46.8106 3.58105C46.8193 3.58355 46.8284 3.5842 46.8374 3.58293H47.1872C47.2048 3.58307 47.2218 3.57692 47.235 3.56565C47.2482 3.55438 47.2567 3.53878 47.2589 3.5218V2.83186H47.5011L47.8689 3.5218C47.8784 3.52717 47.8892 3.52999 47.9003 3.52999C47.9113 3.52999 47.9221 3.52717 47.9316 3.5218H48.3263C48.3362 3.52588 48.3469 3.52799 48.3577 3.52799C48.3685 3.52799 48.3791 3.52588 48.3891 3.5218C48.3981 3.49934 48.3981 3.4744 48.3891 3.45193V3.48687ZM47.7074 2.45633H47.2589V1.95853H47.7074C47.7725 1.95849 47.835 1.98305 47.8819 2.02704C47.9287 2.07102 47.9562 2.131 47.9586 2.19433C47.961 2.22788 47.9564 2.26157 47.9448 2.29328C47.9333 2.325 47.9152 2.35406 47.8917 2.37865C47.8681 2.40324 47.8396 2.42283 47.8079 2.43619C47.7762 2.44956 47.742 2.45642 47.7074 2.45633Z" fill="#209EC9"/>
</g>
</g>
</g>
<defs>
<linearGradient id="paint0_linear_0_2988" x1="-11.8209" y1="22.7961" x2="68.8786" y2="6.31385" gradientUnits="userSpaceOnUse">
<stop stop-color="#2D86BA"/>
<stop offset="0.12" stop-color="#2C89BD"/>
<stop offset="0.18" stop-color="#2D8CBF"/>
<stop offset="0.25" stop-color="#2A99CE"/>
<stop offset="0.34" stop-color="#28A2D8"/>
<stop offset="0.47" stop-color="#27649D"/>
<stop offset="0.48" stop-color="#27316C"/>
<stop offset="0.49" stop-color="#27558E"/>
<stop offset="0.5" stop-color="#2682BA"/>
<stop offset="0.51" stop-color="#26A9E0"/>
<stop offset="0.52" stop-color="#262261"/>
<stop offset="0.56" stop-color="#2D5D90"/>
<stop offset="0.62" stop-color="#2B9ACF"/>
<stop offset="0.67" stop-color="#26A9E0"/>
</linearGradient>
<linearGradient id="paint1_linear_0_2988" x1="-23.6701" y1="25.713" x2="59.0814" y2="-4.58147" gradientUnits="userSpaceOnUse">
<stop stop-color="#272664"/>
<stop offset="0.09" stop-color="#272A67"/>
<stop offset="0.14" stop-color="#262261"/>
<stop offset="0.23" stop-color="#272C68"/>
<stop offset="0.24" stop-color="#27346E"/>
<stop offset="0.25" stop-color="#293870"/>
<stop offset="0.35" stop-color="#2E88BC"/>
<stop offset="0.46" stop-color="#26A9E0"/>
<stop offset="0.49" stop-color="#2D83B7"/>
<stop offset="0.55" stop-color="#2A4178"/>
<stop offset="0.74" stop-color="#2B4D81"/>
<stop offset="0.78" stop-color="#26A9E0"/>
<stop offset="0.81" stop-color="#26A9E0"/>
</linearGradient>
<linearGradient id="paint2_linear_0_2988" x1="-21.4248" y1="31.8264" x2="60.5337" y2="1.83388" gradientUnits="userSpaceOnUse">
<stop stop-color="#262261"/>
<stop offset="0.11" stop-color="#262766"/>
<stop offset="0.23" stop-color="#263573"/>
<stop offset="0.37" stop-color="#264D8A"/>
<stop offset="0.51" stop-color="#266EA9"/>
<stop offset="0.66" stop-color="#2699D1"/>
<stop offset="0.71" stop-color="#26A9E0"/>
</linearGradient>
</defs>
</svg>
