<svg width="19" height="19" viewBox="0 0 19 19" fill="none" xmlns="http://www.w3.org/2000/svg">
<g id="Group 51">
<path id="Vector" d="M6.56106 0.000444503C6.9949 0.237578 7.16053 0.517786 7.07394 0.868601C6.98025 1.24606 6.70183 1.41791 6.18273 1.41791C4.86894 1.41791 3.55501 1.41791 2.24092 1.41791C1.69533 1.41791 1.42254 1.68939 1.42254 2.23234C1.42254 3.5983 1.42254 4.96411 1.42254 6.32977C1.42254 6.77384 1.11171 7.09401 0.702294 7.08735C0.33551 7.08113 0.0122435 6.78716 0.0104673 6.41547C0.00380659 4.93139 -0.0135117 3.44731 0.0197919 1.96412C0.0402181 1.03868 0.758244 0.258893 1.68053 0.0470719C1.72852 0.0337901 1.77579 0.0180789 1.82218 0L6.56106 0.000444503Z" fill="#53616C"/>
<path id="Vector_2" d="M18.6256 6.55666C18.6091 6.5794 18.5943 6.60329 18.5812 6.62816C18.42 6.97009 18.1087 7.14505 17.7819 7.07578C17.4373 7.00295 17.2113 6.71608 17.2104 6.33685C17.2104 5.42251 17.2104 4.50817 17.2104 3.59428C17.2104 3.12223 17.2131 2.65063 17.2104 2.17858C17.2078 1.70654 16.9129 1.41922 16.4467 1.41878C15.0608 1.41878 13.6745 1.41878 12.2886 1.41878C11.9298 1.41878 11.6669 1.22739 11.5697 0.909875C11.5261 0.767965 11.5291 0.615826 11.5782 0.475742C11.6274 0.335659 11.7201 0.214993 11.8428 0.131422C11.9143 0.0821299 11.9938 0.0448279 12.0693 0.00219727H16.8095C16.8565 0.0181838 16.9023 0.0372791 16.9507 0.049713C17.7242 0.243919 18.2467 0.715669 18.5182 1.46496C18.5599 1.58086 18.5901 1.70076 18.6256 1.82022V6.55666Z" fill="#53616C"/>
<path id="Vector_3" d="M18.6248 16.8078C18.5804 16.9463 18.5422 17.0866 18.4916 17.2234C18.1999 18.0396 17.4334 18.6102 16.572 18.6169C15.1324 18.6307 13.6928 18.6249 12.2532 18.6204C12.159 18.6218 12.0656 18.6042 11.9784 18.5688C11.8911 18.5333 11.8119 18.4808 11.7453 18.4142C11.6788 18.3477 11.6262 18.2684 11.5908 18.1812C11.5554 18.094 11.5378 18.0005 11.5391 17.9064C11.5445 17.5112 11.8544 17.2101 12.274 17.2092C13.6396 17.2062 15.0054 17.2062 16.3713 17.2092C16.9436 17.2092 17.2083 16.9427 17.2083 16.3655C17.2083 15.0001 17.2083 13.6343 17.2083 12.268C17.2083 11.9017 17.4388 11.621 17.778 11.5495C18.0928 11.4829 18.3997 11.6441 18.5613 11.9563C18.5808 11.9945 18.6057 12.0313 18.6248 12.0686V16.8078Z" fill="#53616C"/>
<path id="Vector_4" d="M0.00204409 14.4271C0.00204409 13.7332 0.00204409 13.0391 0.00204409 12.3449C0.00204409 11.8564 0.288455 11.5335 0.71563 11.5366C1.1428 11.5398 1.419 11.8635 1.419 12.356C1.419 13.6994 1.419 15.043 1.419 16.3868C1.419 16.9281 1.69564 17.2061 2.23383 17.2061C3.59972 17.2061 4.96517 17.2061 6.33106 17.2061C6.87235 17.2061 7.22848 17.687 7.04154 18.1635C6.92786 18.4508 6.70584 18.6182 6.39545 18.6196C4.93408 18.6244 3.47183 18.6395 2.01047 18.6129C0.927883 18.5929 0.0313515 17.6608 0.00781693 16.5737C-0.00772475 15.8579 0.00470827 15.1416 0.00470827 14.4258L0.00204409 14.4271Z" fill="#53616C"/>
</g>
</svg>
