<svg width="21" height="20" viewBox="0 0 21 20" fill="none" xmlns="http://www.w3.org/2000/svg">
<g id="exclamation-mark-svgrepo-com 2">
<g id="Group">
<path id="Vector" d="M10.0069 0C10.0096 0 10.0131 0.000441399 10.0157 0.000441399C10.0188 0.000441399 10.0215 0 10.0246 0C15.542 0 20.0156 4.47314 20.0156 9.99151C20.0156 15.509 15.542 19.9826 10.0246 19.9826C10.0215 19.9826 10.0188 19.9826 10.0157 19.9826C10.0131 19.9826 10.0096 19.9826 10.0069 19.9826C4.48942 19.9826 0.0158386 15.509 0.0158386 9.99151C0.0153961 4.47314 4.48898 0 10.0069 0ZM10.0069 17.1223C10.0096 17.1223 10.0131 17.1219 10.0157 17.1219C10.0188 17.1219 10.0215 17.1223 10.0246 17.1223C10.9277 17.1223 11.6599 16.3905 11.6599 15.4869C11.6599 14.5843 10.9277 13.8524 10.0246 13.8524C10.0215 13.8524 10.0188 13.8524 10.0157 13.8524C10.0131 13.8524 10.0096 13.8524 10.0069 13.8524C9.10424 13.8524 8.37108 14.5843 8.37108 15.4869C8.37108 16.39 9.10292 17.1223 10.0069 17.1223ZM7.66175 4.66029C7.76857 6.29214 8.51453 11.1453 8.51453 11.1453C8.51453 11.9637 9.18502 12.6267 10.0034 12.6267C10.0078 12.6267 10.0122 12.6267 10.0162 12.6267C10.0201 12.6267 10.025 12.6267 10.029 12.6267C10.8469 12.6267 11.5174 11.9628 11.5174 11.1453C11.5174 11.1453 12.2629 6.29214 12.3697 4.66029C12.4227 3.84326 11.7968 2.32617 10.0285 2.32617C10.0241 2.32617 10.0197 2.32661 10.0157 2.32661C10.0118 2.32661 10.0073 2.32617 10.0029 2.32617C8.23513 2.32617 7.60834 3.84326 7.66175 4.66029Z" fill="#F97C7C"/>
</g>
</g>
</svg>
