<svg width="26" height="26" viewBox="0 0 26 26" fill="none" xmlns="http://www.w3.org/2000/svg">
<g id="Group 427319720">
<g id="Group 427319718">
<circle id="Ellipse 995" cx="12.5264" cy="12.5264" r="12.5264" fill="#4BA9FF"/>
</g>
<g id="&#240;&#159;&#166;&#134; icon &#34;heart&#34;">
<path id="Vector" d="M18.3419 8.17475C18.0139 7.8466 17.6244 7.58628 17.1958 7.40867C16.7672 7.23106 16.3077 7.13965 15.8438 7.13965C15.3798 7.13965 14.9203 7.23106 14.4917 7.40867C14.0631 7.58628 13.6736 7.8466 13.3456 8.17475L12.6649 8.85548L11.9842 8.17475C11.3216 7.51221 10.423 7.13999 9.48603 7.13999C8.54904 7.13999 7.65044 7.51221 6.98789 8.17475C6.32534 8.8373 5.95313 9.73591 5.95312 10.6729C5.95312 11.6099 6.32534 12.5085 6.98789 13.171L7.66861 13.8518L12.6649 18.848L17.6612 13.8518L18.3419 13.171C18.6701 12.843 18.9304 12.4536 19.108 12.0249C19.2856 11.5963 19.377 11.1369 19.377 10.6729C19.377 10.2089 19.2856 9.74948 19.108 9.32084C18.9304 8.89221 18.6701 8.50276 18.3419 8.17475Z" fill="white"/>
</g>
</g>
</svg>
