<svg width="19" height="19" viewBox="0 0 19 19" fill="none" xmlns="http://www.w3.org/2000/svg">
<ellipse cx="9.8321" cy="9.62718" rx="9.16804" ry="8.97704" fill="#31343D"/>
<path d="M13.052 6.63892C13.052 6.36059 12.8216 6.13497 12.5374 6.13497L7.90534 6.13497C7.6211 6.13497 7.39067 6.36059 7.39067 6.63892C7.39067 6.91724 7.6211 7.14286 7.90534 7.14286L12.0227 7.14286L12.0227 11.1744C12.0227 11.4528 12.2531 11.6784 12.5374 11.6784C12.8216 11.6784 13.052 11.4528 13.052 11.1744L13.052 6.63892ZM6.41096 11.925C6.20996 12.1218 6.20996 12.4409 6.41095 12.6377C6.61195 12.8345 6.93782 12.8345 7.13881 12.6377L6.41096 11.925ZM12.1734 6.28257L6.41096 11.925L7.13881 12.6377L12.9013 6.99526L12.1734 6.28257Z" fill="white"/>
</svg>
